<svg aria-hidden="true" style="position:absolute;width:0;height:0;overflow:hidden" xmlns="http://www.w3.org/2000/svg"><defs>
<symbol id="company-two" viewBox="0 0 25 32">
<path d="M10.531 1.806h-.084a9.985 9.985 0 0 0-.388-.014h-.28c-.244 0-.494.006-.741.019a.523.523 0 0 0-.056 0 17.4 17.4 0 0 0-6.471 1.651l-.266.128v13.625l.623-.211a23.32 23.32 0 0 1 1.731-.513 21.155 21.155 0 0 1 4.982-.662v1.79a15.56 15.56 0 0 0-.655.019h-.051a19.948 19.948 0 0 0-3.833.588c-1.59.398-3.124.996-4.566 1.779V2.53A18.3 18.3 0 0 1 5.266.582 18.343 18.343 0 0 1 9.781 0h.263c.314.008.621.022.909.044.759.053 1.511.173 2.249.358v1.762a13.947 13.947 0 0 0-2.179-.329l-.045-.004c-.152-.013-.304-.026-.446-.026zm3.102 1.801c.391.03.796.044 1.205.044a19.352 19.352 0 0 0 4.747-.609c1.589-.4 3.123-.998 4.564-1.781v17.163a18.313 18.313 0 0 1-4.792 1.948 18.486 18.486 0 0 1-4.515.581 13.778 13.778 0 0 1-3.425-.404V3.274c.265.061.537.117.814.164.455.077.934.133 1.401.167zm8.734.133-.623.21c-.573.192-1.15.365-1.731.518a21.098 21.098 0 0 1-5.173.663c-.406 0-.78-.011-1.141-.034l-.497-.033v14.017l.427.038c.395.034.803.052 1.214.052a16.573 16.573 0 0 0 4.074-.527 17.107 17.107 0 0 0 3.184-1.144l.266-.128V3.742zM1.684 25.977a.912.912 0 0 0-.693-.28 1.034 1.034 0 0 0-.4.075.91.91 0 0 0-.512.518 1.023 1.023 0 0 0-.072.387v2.335c-.006.165.026.328.092.479.055.12.135.226.233.313a.815.815 0 0 0 .321.166c.114.032.231.048.349.049a.972.972 0 0 0 .892-.61.951.951 0 0 0 .075-.372v-.261h-.61v.208a.528.528 0 0 1-.036.208.359.359 0 0 1-.089.131.365.365 0 0 1-.128.067.425.425 0 0 1-.128.022.314.314 0 0 1-.286-.125.548.548 0 0 1-.081-.313v-2.177a.738.738 0 0 1 .075-.349.31.31 0 0 1 .299-.141.33.33 0 0 1 .272.131c.068.09.104.2.101.313v.202h.604v-.238a1.093 1.093 0 0 0-.279-.737zM5.31 25.95a1.051 1.051 0 0 0-1.38 0 .961.961 0 0 0-.237.327 1.099 1.099 0 0 0-.089.452v2.239a1.08 1.08 0 0 0 .089.459c.055.12.136.227.237.313a.94.94 0 0 0 .322.197 1.028 1.028 0 0 0 .728 0c.121-.044.233-.111.33-.197a.948.948 0 0 0 .23-.313 1.08 1.08 0 0 0 .089-.459v-2.239a1.08 1.08 0 0 0-.089-.452 1.015 1.015 0 0 0-.23-.327zm-.285 3.019a.405.405 0 0 1-.121.324.445.445 0 0 1-.574 0 .397.397 0 0 1-.121-.324V26.73a.405.405 0 0 1 .121-.324.445.445 0 0 1 .574 0 .397.397 0 0 1 .121.324v2.239zM10.072 29.969V25.73h-.587l-.771 2.244h-.011l-.777-2.244h-.581v4.239h.606V27.39h.011l.593 1.823h.302l.598-1.823h.011v2.579h.606zM13.513 26.027a.84.84 0 0 0-.343-.232 1.363 1.363 0 0 0-.439-.066h-.9v4.239h.604v-1.656h.311c.188.009.376-.031.545-.116a.882.882 0 0 0 .332-.324 1.02 1.02 0 0 0 .139-.369c.024-.16.035-.321.033-.482a2.421 2.421 0 0 0-.059-.606.898.898 0 0 0-.223-.39zm-.312 1.292a.547.547 0 0 1-.056.221.346.346 0 0 1-.156.149.619.619 0 0 1-.285.053h-.275v-1.441h.311a.578.578 0 0 1 .272.053.349.349 0 0 1 .142.157.62.62 0 0 1 .053.236v.282c0 .099.006.2 0 .291h-.006zM16.374 25.73h-.495l-.934 4.239h.604l.177-.911h.823l.177.911h.604l-.957-4.239zm-.557 2.751.297-1.537h.011l.296 1.537h-.604zM20.277 28.284h-.011l-.912-2.554h-.581v4.239h.604V27.42h.012l.923 2.549h.568V25.73h-.604v2.554zM23.968 25.73l-.486 1.685h-.012l-.486-1.685h-.64l.83 2.447v1.792h.604v-1.792l.83-2.447h-.64zM0 31.166h.291v.817h.198v-.817h.29v-.167H.001v.167zM2.447 30.998l-.381.984h.21l.081-.224h.392l.084.224h.215l-.391-.984h-.21zm-.031.595.134-.365.134.365h-.268zM4.866 31.62h.227v.127a.382.382 0 0 1-.234.083.244.244 0 0 1-.209-.093.411.411 0 0 1-.073-.257c0-.219.095-.329.283-.329a.206.206 0 0 1 .222.157l.195-.038c-.042-.192-.181-.289-.417-.289a.495.495 0 0 0-.344.127.494.494 0 0 0-.141.379.532.532 0 0 0 .126.369.477.477 0 0 0 .374.144.59.59 0 0 0 .417-.157v-.388h-.427v.166zM7.337 30.998h-.199v.984h.69v-.167h-.49v-.817zM9.426 30.998h-.199v.984h.199v-.984zM11.469 31.656l-.403-.657h-.193v.984h.185v-.643l.395.643h.198v-.984h-.182v.657zM13.315 31.549h.49v-.167h-.49v-.216h.528v-.167h-.727v.984h.747v-.167h-.548v-.266zM17.792 31.387h-.388v-.388h-.198v.984h.198v-.43h.388v.43h.198v-.984h-.198v.388zM19.649 31.549h.492v-.167h-.492v-.216h.529v-.167h-.727v.984h.746v-.167h-.548v-.266zM22.168 31.549c.171-.027.258-.117.258-.274a.236.236 0 0 0-.096-.219.553.553 0 0 0-.288-.058h-.417v.984h.198v-.412h.039a.261.261 0 0 1 .123.022.21.21 0 0 1 .07.072l.215.313h.237l-.12-.192a.685.685 0 0 0-.218-.236zm-.199-.136h-.146v-.247h.156a.526.526 0 0 1 .201.023c.014.013.026.029.033.046a.133.133 0 0 1-.005.111.128.128 0 0 1-.037.043.547.547 0 0 1-.201.023zM24.067 31.549h.49v-.167h-.49v-.216h.529v-.167h-.729v.984h.747v-.167h-.548v-.266z"/>
</symbol>
<symbol id="astronaut" viewBox="0 0 70 70">
<path d="M69.9434 9.89643C69.8058 9.47519 69.4418 9.1673 69.002 9.10304L64.823 8.49518L62.9528 4.70815C62.5608 3.91011 61.2529 3.91011 60.8609 4.70815L58.9907 8.49518L54.8116 9.10318C54.3718 9.1673 54.0078 9.47424 53.8689 9.89657C53.7325 10.3189 53.8455 10.7832 54.1641 11.0925L57.1893 14.0407L56.4754 18.2035C56.4007 18.641 56.5804 19.0831 56.9386 19.3445C57.3014 19.6083 57.775 19.6408 58.1682 19.4331L61.9063 17.4672L65.6444 19.4331C65.8147 19.5229 66.0026 19.5672 66.1881 19.5672C66.4296 19.5672 66.6712 19.4926 66.8742 19.3444C67.2335 19.0831 67.4131 18.6408 67.3374 18.2033L66.6235 14.0406L69.6487 11.0923C69.9656 10.782 70.08 10.3188 69.9434 9.89643ZM64.5558 12.7992C64.2817 13.0663 64.1556 13.4536 64.221 13.8317L64.6387 16.2689L62.4501 15.1185C62.2797 15.0287 62.0931 14.9844 61.9063 14.9844C61.7197 14.9844 61.5342 15.0287 61.3626 15.1185L59.1738 16.2689L59.5915 13.8317C59.6568 13.4536 59.5308 13.0675 59.2567 12.7992L57.4845 11.0725L59.9322 10.7166C60.3126 10.6618 60.6404 10.4227 60.8108 10.0784L61.9051 7.86175L62.9994 10.0784C63.1697 10.4225 63.4976 10.6618 63.878 10.7166L66.3257 11.0725L64.5558 12.7992Z" fill="#2196F3"/>
<path d="M57.1669 44.8923H54.8335V47.2257H57.1669V44.8923Z" fill="#2196F3"/>
<path d="M57.1669 49.5591H54.8335V51.8925H57.1669V49.5591Z" fill="#2196F3"/>
<path d="M59.5004 47.2257H57.167V49.5591H59.5004V47.2257Z" fill="#2196F3"/>
<path d="M54.8339 47.2257H52.5005V49.5591H54.8339V47.2257Z" fill="#2196F3"/>
<path d="M49.0004 57.7258H46.667V60.0592H49.0004V57.7258Z" fill="#2196F3"/>
<path d="M49.0004 62.3926H46.667V64.726H49.0004V62.3926Z" fill="#2196F3"/>
<path d="M51.3334 60.0593H49V62.3927H51.3334V60.0593Z" fill="#2196F3"/>
<path d="M46.6669 60.0593H44.3335V62.3927H46.6669V60.0593Z" fill="#2196F3"/>
<path d="M34.9999 53.0592H32.6665V55.3926H34.9999V53.0592Z" fill="#2196F3"/>
<path d="M34.9999 57.7258H32.6665V60.0592H34.9999V57.7258Z" fill="#2196F3"/>
<path d="M37.3334 55.3925H35V57.7259H37.3334V55.3925Z" fill="#2196F3"/>
<path d="M32.6664 55.3925H30.333V57.7259H32.6664V55.3925Z" fill="#2196F3"/>
<path d="M12.8329 13.3918H10.4995V15.7253H12.8329V13.3918Z" fill="#2196F3"/>
<path d="M12.8329 18.0586H10.4995V20.392H12.8329V18.0586Z" fill="#2196F3"/>
<path d="M15.1664 15.7252H12.833V18.0586H15.1664V15.7252Z" fill="#2196F3"/>
<path d="M10.4994 15.7252H8.16602V18.0586H10.4994V15.7252Z" fill="#2196F3"/>
<path d="M54.0635 30.9739C53.4347 30.1257 52.5119 29.5797 51.4642 29.4326C50.4118 29.2833 49.3734 29.5598 48.5334 30.2026L45.7952 32.3014L45.794 32.3027L41.6428 35.4025L38.6724 34.2195C43.9691 31.843 47.6711 26.5451 47.6711 20.3943C47.6711 12.0315 40.8401 5.22742 32.4436 5.22742C24.047 5.22742 17.2161 12.0315 17.2161 20.3943C17.2161 23.4254 18.1226 26.244 19.6662 28.6158L13.6204 28.5633C13.6168 28.5633 13.6134 28.5633 13.6099 28.5633C13.5911 28.5633 13.5761 28.5726 13.5586 28.5739C13.4431 28.5785 13.3298 28.6019 13.2191 28.6416C13.1911 28.6521 13.162 28.658 13.1352 28.6707C13.1212 28.6765 13.1071 28.6776 13.0932 28.6846L6.02075 32.1765C6.01952 32.1765 6.01843 32.1765 6.01843 32.1776L1.8766 34.1693C1.83107 34.1891 1.78445 34.2159 1.73892 34.2463C0.0880191 35.3452 -0.474314 37.5037 0.429958 39.2676C0.911763 40.2057 1.73195 40.8964 2.73999 41.2125C3.12856 41.3338 3.52518 41.3934 3.91949 41.3934C4.55305 41.3934 5.18074 41.2382 5.75578 40.9314L8.79154 39.3167L13.7441 36.7594L16.7122 36.7418L4.80844 48.5884C4.80735 48.5897 4.80612 48.5897 4.80489 48.5908L1.87647 51.5074C1.18466 52.1958 0.8043 53.1092 0.8043 54.0835C0.8043 55.0566 1.18466 55.9723 1.87647 56.6619C2.587 57.3689 3.52149 57.7236 4.45598 57.7236C5.3917 57.7236 6.32495 57.3689 7.03782 56.6619L9.91251 53.7989L13.7206 50.9556L15.6912 52.918L11.8375 56.7552C11.8364 56.7564 11.8352 56.7564 11.834 56.7575L8.90556 59.6742C8.21375 60.3626 7.8334 61.276 7.8334 62.2503C7.8334 63.2233 8.21375 64.1391 8.90556 64.8287C9.6161 65.5357 10.5518 65.8903 11.4863 65.8903C12.4208 65.8903 13.3565 65.5357 14.0681 64.8287L16.9977 61.912L21.6842 57.2453C21.6854 57.2441 21.6854 57.243 21.6865 57.2418L23.8951 55.0542L23.8869 55.046C23.9008 55.0321 23.9207 55.0273 23.9347 55.0123L35.2353 42.6349L42.8281 43.7153C42.8829 43.7235 42.9377 43.7269 42.9925 43.7269C43.1338 43.7269 43.2702 43.6931 43.402 43.643C43.4406 43.629 43.4743 43.6103 43.5106 43.5917C43.5526 43.5706 43.5968 43.559 43.6366 43.5322L50.6659 38.8655C50.6916 38.848 50.7055 38.82 50.73 38.8014C50.758 38.7793 50.793 38.77 50.8186 38.7454L53.5999 36.1401C55.0471 34.7841 55.2466 32.5628 54.0635 30.9739ZM4.66024 38.8722C4.28111 39.0753 3.85058 39.116 3.43878 38.9854C3.03039 38.8583 2.69912 38.5794 2.50538 38.2026C2.15305 37.5165 2.35718 36.6811 2.97433 36.2297L5.84793 34.8472L6.53974 36.869L6.83027 37.7183L4.66024 38.8722ZM12.3102 34.8741L8.92333 36.6241L8.36456 34.9907L7.96328 33.817L12.3967 31.6282L12.3102 34.8741ZM45.3402 20.3919C45.3402 22.4009 44.8607 24.2957 44.03 25.9908L34.8832 21.8363C34.7875 20.5821 34.1366 19.4843 33.1589 18.8005L36.3614 8.16856C41.5626 9.82302 45.3402 14.6752 45.3402 20.3919ZM19.5519 20.3919C19.5519 13.316 25.3363 7.55837 32.446 7.55837C32.9991 7.55837 33.5403 7.60499 34.0759 7.67267L30.9433 18.0714C30.9014 18.0702 30.8617 18.0585 30.8185 18.0585C28.5597 18.0585 26.7222 19.8902 26.7222 22.142C26.7222 24.3936 28.5597 26.2254 30.8185 26.2254C32.3375 26.2254 33.65 25.3866 34.3582 24.1592L42.8073 27.9976C40.4564 31.1616 36.6938 33.2255 32.4459 33.2255C25.3363 33.2255 19.5519 27.4679 19.5519 20.3919ZM32.5814 22.142C32.5814 23.1068 31.7903 23.892 30.8185 23.892C29.8467 23.892 29.0556 23.1068 29.0556 22.142C29.0556 21.1771 29.8467 20.3919 30.8185 20.3919C31.7903 20.3919 32.5814 21.1771 32.5814 22.142ZM5.39183 55.0075C4.87503 55.5196 4.03843 55.5185 3.52286 55.0087C3.2743 54.7602 3.13785 54.4324 3.13785 54.0835C3.13785 53.7358 3.2743 53.408 3.52286 53.1619L5.6274 51.0653L7.48941 52.9192L5.39183 55.0075ZM12.4222 63.1744C11.9054 63.6865 11.0677 63.6878 10.552 63.1756C10.3034 62.927 10.1669 62.5993 10.1669 62.2504C10.1669 61.9027 10.3034 61.5749 10.552 61.3288L12.6579 59.2311L13.5388 60.1073L14.5211 61.085L12.4222 63.1744ZM20.0383 55.5862C20.0371 55.5873 20.036 55.5873 20.0348 55.5886L16.1742 59.4386L15.2933 58.5624L14.311 57.5847L18.168 53.7451C18.168 53.7451 18.168 53.7451 18.168 53.744C18.1692 53.7428 18.1703 53.7428 18.1715 53.7417C18.259 53.6542 18.3139 53.5492 18.3676 53.4454C18.3828 53.4151 18.4119 53.3894 18.4248 53.3579C18.461 53.2681 18.4667 53.1713 18.4808 53.0767C18.4878 53.023 18.5112 52.9729 18.5112 52.918C18.5112 52.8398 18.4831 52.764 18.4669 52.6869C18.4529 52.6169 18.4529 52.5457 18.426 52.4781C18.3817 52.3685 18.3058 52.2717 18.2265 52.1771C18.2044 52.1514 18.1962 52.1187 18.1717 52.0942C18.1717 52.0942 18.1717 52.0942 18.1705 52.0942C18.1692 52.0931 18.1692 52.0907 18.1681 52.0896L14.6529 48.5895C14.6156 48.5522 14.5677 48.537 14.5257 48.5056C14.464 48.4577 14.4045 48.4134 14.3356 48.3795C14.2691 48.3469 14.2014 48.327 14.1314 48.3083C14.0568 48.2872 13.9845 48.271 13.9063 48.2651C13.835 48.2604 13.7686 48.2674 13.6975 48.2756C13.6193 48.2849 13.5459 48.2954 13.47 48.3199C13.3964 48.3433 13.3312 48.3794 13.2635 48.4179C13.2203 48.4424 13.1714 48.4506 13.1305 48.481L9.25133 51.3767L7.28077 49.4144L12.5285 44.1946L22.0674 53.576L20.0383 55.5862ZM34.9544 40.2373C34.9207 40.2326 34.8891 40.2455 34.8553 40.2431C34.7701 40.2385 34.6885 40.2444 34.6034 40.2583C34.5369 40.2699 34.4739 40.2828 34.4108 40.3049C34.3362 40.3306 34.2685 40.3656 34.1996 40.4076C34.1343 40.4473 34.0748 40.4892 34.0176 40.5417C33.9896 40.5662 33.9558 40.578 33.9301 40.6059L23.6527 51.8621L14.185 42.5507L20.3825 36.386C20.8387 35.931 20.841 35.1924 20.386 34.7351C20.1562 34.5052 19.854 34.392 19.5519 34.3933V34.3922L14.6984 34.4213L14.7591 30.905L21.5492 30.9633C24.3166 33.7937 28.176 35.5589 32.446 35.5589C33.4027 35.5589 34.3361 35.4598 35.2448 35.2906C35.3323 35.3606 35.4186 35.4318 35.5284 35.4761L40.7995 37.5761L41.1331 39.2351L41.5228 41.1717L34.9544 40.2373ZM43.7944 40.6269L43.1096 37.219L46.2736 34.8565L47.102 35.9554L48.3445 37.6051L43.7944 40.6269ZM52.0055 34.4341L50.1726 36.1515L48.1356 33.4471L49.9544 32.053C50.2938 31.7917 50.7221 31.6855 51.1421 31.7403C51.5644 31.7998 51.9378 32.0203 52.1921 32.3621C52.6658 33.0003 52.5853 33.8905 52.0055 34.4341Z" fill="#212121"/>
<path d="M29.7547 40.5651L25.0669 35.8984C24.6131 35.4447 23.8757 35.4447 23.4207 35.8984L18.7341 40.5651C18.5148 40.7857 18.3911 41.0819 18.3911 41.3923C18.3911 41.7026 18.5136 42.0002 18.7341 42.2195L23.4207 46.8861C23.6482 47.1124 23.9469 47.2256 24.2444 47.2256C24.5419 47.2256 24.8405 47.1124 25.0669 46.8861L29.7547 42.2195C29.974 42.0002 30.0988 41.7026 30.0988 41.3923C30.0988 41.0819 29.9751 40.7844 29.7547 40.5651ZM24.2444 44.4129L21.211 41.3923L24.2444 38.3717L27.2789 41.3923L24.2444 44.4129Z" fill="#212121"/>
<path d="M37.547 11.0923L36.9834 13.358C37.1386 13.3966 40.7845 14.3462 40.7845 18.0586H43.1179C43.1178 13.6461 39.4743 11.5718 37.547 11.0923Z" fill="#212121"/>
<path d="M43.1176 20.392H40.7842V22.7254H43.1176V20.392Z" fill="#212121"/></symbol>
<symbol id="antena" viewBox="0 0 70 70">
<path d="M67.3163 48.3385L48.8468 29.7337L50.8966 19.6373C51.4256 19.8438 51.9879 19.9517 52.5556 19.9558H52.5696C55.1777 19.9866 57.3169 17.8974 57.3479 15.2893C57.3788 12.6812 55.2894 10.542 52.6813 10.5111C50.0732 10.4803 47.934 12.5695 47.9031 15.1776C47.8965 15.7357 47.9888 16.2905 48.176 16.8163L37.326 18.1405L19.6276 0.35C19.4105 0.128479 19.1141 0.00247917 18.804 0C18.4977 0.00160417 18.2044 0.123521 17.9873 0.3395L14.6786 3.6295C14.2232 4.08508 14.2232 4.82358 14.6786 5.27917L16.459 7.08517C9.56162 19.7681 11.8019 35.4741 21.9703 45.7228C22.0636 45.8121 22.1718 45.8843 22.29 45.9363C22.2165 46.3311 22.1781 46.7317 22.1756 47.1333V60.6667H8.17562C4.95562 60.6705 2.34608 63.28 2.34229 66.5V68.8333C2.34229 69.4776 2.86466 70 3.50895 70H57.1756C57.8199 70 58.3423 69.4776 58.3423 68.8333V66.5C58.3385 63.28 55.729 60.6705 52.509 60.6667H38.509V54.6688C40.7021 55.1288 42.9367 55.3633 45.1776 55.3688C50.5548 55.363 55.8464 54.0225 60.5776 51.4675L62.3673 53.2677C62.5844 53.4892 62.8808 53.6152 63.191 53.6177C63.4972 53.6161 63.7905 53.4941 64.0076 53.2782L67.3163 49.9882C67.7717 49.5326 67.7717 48.7941 67.3163 48.3385ZM50.9246 13.6348C51.8383 12.726 53.3157 12.7301 54.2244 13.6437C55.1332 14.5574 55.1291 16.0348 54.2155 16.9435C53.7781 17.3785 53.1864 17.6226 52.5695 17.6225H52.5625C51.2739 17.6158 50.2345 16.5658 50.2412 15.2771C50.2445 14.6602 50.4918 14.0699 50.9291 13.6348H50.9246ZM48.1783 21.301L46.8693 27.7445L44.298 25.158L48.1783 21.301ZM46.853 19.3282L42.653 23.5037L39.4038 20.237L46.853 19.3282ZM52.509 63C54.442 63 56.009 64.567 56.009 66.5V67.6667H4.67562V66.5C4.67562 64.567 6.2426 63 8.17562 63H52.509ZM36.1756 58.3333V60.6667H24.509V58.3333H36.1756ZM24.509 56V47.1333C24.509 44.303 27.1258 42 30.3423 42C33.5588 42 36.1756 44.303 36.1756 47.1333V56H24.509ZM38.509 52.29V47.1333C38.509 43.0162 34.8456 39.6667 30.3423 39.6667C27.4306 39.622 24.7079 41.1041 23.165 43.5738C14.2887 34.2249 12.2899 20.2875 18.1805 8.82073L58.872 49.7455C52.5886 52.9419 45.3857 53.8418 38.509 52.29ZM63.2038 50.7943L61.56 49.1412L18.7923 6.11567L17.1415 4.46133L18.7923 2.81633L36.15 20.272C36.1581 20.272 36.1628 20.2872 36.171 20.293L64.8593 49.1493L63.2038 50.7943Z" fill="#212121"/>
<path d="M30.3527 44.3333H30.3422C28.4091 44.3303 26.8398 45.895 26.8369 47.828C26.834 49.761 28.3986 51.3303 30.3317 51.3333H30.3422C32.2752 51.3362 33.8445 49.7715 33.8474 47.8385C33.8503 45.9055 32.2857 44.3362 30.3527 44.3333ZM31.1693 48.6604C30.9497 48.8789 30.6521 49.0011 30.3422 48.9999C29.6979 48.9966 29.1783 48.4716 29.1816 47.8273C29.1832 47.5188 29.3069 47.2237 29.5255 47.0061C29.7426 46.7901 30.0359 46.6682 30.3422 46.6666C30.9865 46.6699 31.5061 47.1949 31.5027 47.8392C31.5011 48.1477 31.3774 48.4428 31.1588 48.6604H31.1693Z" fill="#2196F3"/>
</symbol>
<symbol id="clock" viewBox="0 0 70 70">
<path d="M68.4614 33.4715C68.4576 14.9819 53.4656 -0.00373771 34.9754 6.99302e-07C16.4858 0.00373911 1.50017 14.9963 1.50391 33.4859C1.50711 48.0502 10.9252 60.9413 24.7995 65.3713C24.9319 65.413 25.0697 65.4343 25.2081 65.4338C25.4719 65.4333 25.7304 65.3628 25.9573 65.2287C26.2527 65.0541 26.4732 64.7764 26.5768 64.449L35.0315 37.6521C37.3429 37.6404 39.2068 35.7568 39.1945 33.4459C39.1827 31.1345 37.2997 29.2706 34.9883 29.2824C34.3666 29.285 33.753 29.4282 33.1944 29.7011L22.0251 18.5302C21.4707 17.9951 20.5879 18.0106 20.0528 18.5644C19.5305 19.1054 19.5305 19.962 20.0528 20.503L31.2162 31.6792C30.3596 33.4277 30.8493 35.5383 32.3895 36.7303L24.3338 62.2647C8.41354 56.4002 0.261689 38.7405 6.12618 22.8203C11.9907 6.90002 29.6503 -1.25183 45.5706 4.61266C61.4909 10.4771 69.6427 28.1374 63.7782 44.0571C60.913 51.8351 55.0261 58.1252 47.4548 61.4989L46.5842 57.3989C46.4251 56.6454 45.6844 56.1636 44.9308 56.3233C44.6931 56.3741 44.4726 56.4857 44.291 56.6475L35.8978 64.1409C35.322 64.653 35.2708 65.5347 35.7835 66.1105C35.9501 66.2974 36.1637 66.4362 36.403 66.5126L47.1188 69.9327C47.8521 70.1682 48.6377 69.765 48.8732 69.0312C48.948 68.7994 48.9603 68.5527 48.9101 68.3145L48.0545 64.2915C60.4452 59.0678 68.4902 46.918 68.4614 33.4715ZM34.9829 32.0766C35.753 32.0766 36.3779 32.7014 36.3779 33.4715C36.3779 34.2422 35.753 34.8665 34.9829 34.8665C34.2123 34.8665 33.588 34.2422 33.588 33.4715C33.588 32.7014 34.2123 32.0766 34.9829 32.0766ZM39.5774 64.5916L44.3551 60.3298L45.6737 66.543L39.5774 64.5916Z" fill="#212121"/>
<path d="M33.5879 6.96735V9.75726C33.5879 10.5279 34.2122 11.1522 34.9828 11.1522C35.753 11.1522 36.3778 10.5279 36.3778 9.75726V6.96735C36.3778 6.19724 35.753 5.57239 34.9828 5.57239C34.2122 5.57239 33.5879 6.19724 33.5879 6.96735Z" fill="#2196F3"/>
<path d="M8.47894 32.0765C7.7083 32.0765 7.08398 32.7014 7.08398 33.4715C7.08398 34.2421 7.7083 34.8665 8.47894 34.8665H11.2689C12.0395 34.8665 12.6638 34.2421 12.6638 33.4715C12.6638 32.7014 12.0395 32.0765 11.2689 32.0765H8.47894Z" fill="#2196F3"/>
<path d="M61.4866 34.8665C62.2573 34.8665 62.8816 34.2421 62.8816 33.4715C62.8816 32.7014 62.2573 32.0765 61.4866 32.0765H58.6967C57.9266 32.0765 57.3018 32.7014 57.3018 33.4715C57.3018 34.2421 57.9266 34.8665 58.6967 34.8665H61.4866Z" fill="#2196F3"/>
</symbol>
<symbol id="company-five" viewBox="0 0 43 32"><path d="M3.239 26.373a.98.98 0 0 1 .25.665c.008.158-.022.315-.089.46s-.169.275-.298.38a1.788 1.788 0 0 1-1.125.307H0V23.97h1.937c.382-.023.761.076 1.073.28.125.096.224.217.289.354s.095.286.086.435a.923.923 0 0 1-.225.645 1.06 1.06 0 0 1-.589.329c.262.044.499.172.668.36zM.92 25.737h.828a.835.835 0 0 0 .526-.14c.062-.052.111-.116.141-.187s.043-.148.036-.225c.006-.076-.007-.153-.037-.224s-.078-.135-.138-.188a.858.858 0 0 0-.542-.142H.92v1.106zm1.435 1.616c.066-.053.119-.119.153-.193s.049-.155.043-.235c.005-.081-.01-.163-.045-.238s-.088-.142-.155-.195a.907.907 0 0 0-.562-.152H.921v1.159H1.8a.93.93 0 0 0 .556-.146zM7.197 28.185 6.12 26.538h-.405v1.647h-.927V23.97h1.754c.442-.028.879.1 1.221.358.245.229.393.53.417.85s-.078.637-.287.894a1.46 1.46 0 0 1-.837.428l1.147 1.684H7.195zm-1.482-2.222h.758c.526 0 .789-.213.789-.638a.586.586 0 0 0-.193-.473.87.87 0 0 0-.596-.171h-.767l.009 1.283zM12.262 27.337h-1.847l-.326.848h-.972l1.696-4.168h1.05l1.689 4.168h-.972l-.319-.848zm-.247-.639-.675-1.779-.675 1.779h1.349zM18.602 28.185h-.92l-2.062-2.867v2.867h-.918V23.97h.918l2.062 2.883V23.97h.92v4.215zM23.852 27.176c-.19.318-.48.577-.832.743-.4.185-.845.276-1.293.266H20.09V23.97h1.637c.448-.011.891.078 1.293.259.352.163.642.419.832.735.189.343.288.722.288 1.106s-.099.763-.288 1.106zm-1.053-.101c.263-.28.407-.637.407-1.006s-.144-.726-.407-1.006a1.692 1.692 0 0 0-1.152-.358h-.639v2.729h.639a1.7 1.7 0 0 0 1.152-.358zM12.838.522s11.873 4.104 11.621 10.043V20.61s-11.864-4.106-11.617-10.045L12.837.522zM35.037 18.259c2.242-1.413 4.836-2.288 7.544-2.545v-3.145c-3.12 1.101-5.766 3.097-7.544 5.69z"/><path d="M33.69 19.206c1.835-3.384 5.017-5.995 8.891-7.296V2.849S25.672 8.695 26.03 17.153v14.302s.753-.262 1.939-.752c0-.457 0-.918.054-1.382.35-3.926 2.389-7.565 5.668-10.115z"/><path d="M32.081 24.52a13.62 13.62 0 0 1 .592-2.928c-2.042 2.203-3.278 4.936-3.536 7.815-.025.272-.038.544-.045.824a50.77 50.77 0 0 0 3.252-1.569 13.564 13.564 0 0 1-.263-4.141zM32.754 24.571a12.973 12.973 0 0 0 .209 3.75c4.62-2.531 9.811-6.442 9.611-11.168v-.412c-3.301.338-6.389 1.659-8.79 3.76a13.125 13.125 0 0 0-1.03 4.069z"/></symbol><symbol id="company-four" viewBox="0 0 65 32"><path d="M10.016 9.983h-.002c-1.827 0-3.308 1.316-3.308 2.94v.002c0 1.624 1.481 2.94 3.308 2.94h.002c1.827 0 3.308-1.316 3.308-2.94v-.002c0-1.624-1.481-2.94-3.308-2.94zM34.434 9.043c-.005-2.255-1.015-4.417-2.81-6.012S27.398.538 24.86.533c-2.538.004-4.972.902-6.767 2.497s-2.806 3.757-2.811 6.013v12.436s19.149-1.895 19.151-12.434v-.002zM0 25.562c.005 1.569.708 3.073 1.956 4.183s2.94 1.735 4.706 1.74c1.765-.005 3.457-.63 4.705-1.739s1.952-2.613 1.957-4.182V16.91S-.001 18.23-.001 25.562zm6.662 1.55c-.345 0-.682-.091-.969-.261s-.511-.413-.643-.696-.167-.595-.099-.896.233-.577.477-.794.555-.364.893-.424c.338-.06.689-.029 1.008.088s.591.316.783.571a1.404 1.404 0 0 1 .163 1.456c-.087.189-.216.36-.378.505-.162.145-.355.259-.567.338s-.439.119-.669.119v-.006zM20.128 26.258h-1.286v1.328h-.67v-3.25h2.116v.542h-1.446v.839h1.286v.54zm3.218-.223c0 .32-.057.6-.17.842s-.275.427-.487.558c-.21.131-.451.196-.723.196a1.289 1.289 0 0 1-1.212-.748 1.907 1.907 0 0 1-.176-.83v-.161c0-.32.057-.601.172-.844a1.285 1.285 0 0 1 1.212-.756c.271 0 .511.065.721.196.211.129.374.316.489.56.116.242.174.523.174.841v.145zm-.678-.147c0-.341-.061-.6-.183-.777s-.296-.266-.522-.266a.596.596 0 0 0-.52.263c-.122.174-.184.43-.185.768v.158c0 .332.061.589.183.772s.298.275.527.275a.592.592 0 0 0 .518-.263c.121-.177.182-.434.183-.772v-.158zm2.85.846a.342.342 0 0 0-.134-.29c-.089-.068-.25-.14-.482-.214a3.465 3.465 0 0 1-.551-.223c-.369-.199-.554-.468-.554-.806 0-.176.049-.332.147-.469a.985.985 0 0 1 .426-.324c.186-.077.394-.116.625-.116.232 0 .439.042.621.127a.978.978 0 0 1 .422.355.926.926 0 0 1 .152.522h-.67a.434.434 0 0 0-.141-.346c-.094-.083-.225-.125-.395-.125-.164 0-.291.035-.382.105a.323.323 0 0 0-.136.272c0 .106.053.194.158.266.107.071.264.138.471.201.381.115.659.257.833.426s.261.381.261.634a.785.785 0 0 1-.319.663c-.213.159-.499.239-.859.239-.25 0-.478-.045-.683-.136a1.1 1.1 0 0 1-.471-.377.97.97 0 0 1-.161-.554h.672c0 .359.214.538.643.538a.631.631 0 0 0 .373-.096.318.318 0 0 0 .134-.272zm3.574-1.855h-.996v2.708h-.67v-2.708h-.982v-.542h2.647v.542zm2.339 1.299h-1.286v.871h1.509v.538h-2.179v-3.25h2.174v.542h-1.504v.775h1.286v.525zm1.82.218h-.533v1.19h-.67v-3.25h1.208c.384 0 .68.086.888.257s.312.413.312.725a.998.998 0 0 1-.145.556.979.979 0 0 1-.435.353l.703 1.328v.031h-.719l-.609-1.19zm-.534-.542h.54c.168 0 .298-.042.391-.127a.463.463 0 0 0 .138-.355.49.49 0 0 0-.132-.362c-.086-.088-.219-.132-.4-.132h-.538v.975zm4.058.587v1.145h-.67v-3.25h1.268c.244 0 .458.045.643.134a.98.98 0 0 1 .429.382c.1.164.15.35.15.56 0 .318-.109.57-.328.754-.217.183-.519.275-.904.275h-.587zm0-.542h.598c.177 0 .312-.042.404-.125.094-.083.141-.202.141-.357 0-.159-.047-.288-.141-.386s-.223-.149-.388-.152h-.614v1.02zm4.237.279h-1.286v.871h1.509v.538h-2.179v-3.25h2.174v.542h-1.504v.775h1.286v.525zm3.107-1.299h-.995v2.708h-.67v-2.708h-.982v-.542h2.647v.542zm2.339 1.299h-1.286v.871h1.509v.538h-2.178v-3.25h2.174v.542h-1.504v.775h1.286v.525zm1.819.218h-.533v1.19h-.67v-3.25h1.208c.384 0 .68.086.888.257s.313.413.313.725a.998.998 0 0 1-.145.556.979.979 0 0 1-.435.353l.703 1.328v.031h-.719l-.609-1.19zm-.533-.542h.54c.168 0 .298-.042.391-.127a.463.463 0 0 0 .138-.355.49.49 0 0 0-.132-.362c-.086-.088-.219-.132-.4-.132h-.538v.975zm3.935.88a.342.342 0 0 0-.134-.29c-.089-.068-.25-.14-.482-.214a3.465 3.465 0 0 1-.551-.223c-.369-.199-.554-.468-.554-.806 0-.176.049-.332.147-.469a.985.985 0 0 1 .426-.324c.186-.077.394-.116.625-.116.232 0 .439.042.621.127a.973.973 0 0 1 .422.355.926.926 0 0 1 .152.522h-.67a.434.434 0 0 0-.141-.346c-.094-.083-.225-.125-.395-.125-.164 0-.291.035-.382.105a.323.323 0 0 0-.136.272c0 .106.053.194.158.266.107.071.264.138.471.201.381.115.658.257.833.426s.261.381.261.634a.785.785 0 0 1-.319.663c-.213.159-.499.239-.859.239-.25 0-.478-.045-.683-.136a1.1 1.1 0 0 1-.471-.377.97.97 0 0 1-.161-.554h.672c0 .359.214.538.643.538a.634.634 0 0 0 .373-.096.318.318 0 0 0 .134-.272z"/></symbol>
<symbol id="company-one" viewBox="0 0 106 60">
<path d="M37 5L44.3076 11.918H64.6924V31.2158L72 38.1338V5H37Z"/>
<path d="M31 11.6265V43.8137H65V31.0195L44.5231 11.6344L31 11.6265ZM58.5231 39.1055H36.3801V17.4579H37.9453V37.6397H58.5231V39.1055Z"/>
<path d="M40.791 49.7837L41.6089 48.0991H42.2925L41.1011 50.3452V51.6538H40.481V50.3452L39.2871 48.0991H39.9731L40.791 49.7837ZM44.3018 50.8262H42.9248L42.6367 51.6538H41.9946L43.3374 48.0991H43.8916L45.2368 51.6538H44.5923L44.3018 50.8262ZM43.0981 50.3281H44.1284L43.6133 48.8535L43.0981 50.3281ZM46.7358 50.6943C46.7358 50.5299 46.7806 50.3794 46.8701 50.2427C46.9596 50.1043 47.1362 49.9408 47.3999 49.752C47.2616 49.5778 47.1647 49.4297 47.1094 49.3076C47.0557 49.1855 47.0288 49.0675 47.0288 48.9536C47.0288 48.6753 47.1134 48.4556 47.2827 48.2944C47.452 48.1317 47.6799 48.0503 47.9663 48.0503C48.2251 48.0503 48.4367 48.1268 48.6011 48.2798C48.7671 48.4312 48.8501 48.6191 48.8501 48.8438C48.8501 48.9919 48.8127 49.1286 48.7378 49.2539C48.6629 49.3776 48.54 49.5013 48.3691 49.625L48.1274 49.8008L48.8135 50.6113C48.9128 50.416 48.9624 50.1987 48.9624 49.9595H49.4775C49.4775 50.3973 49.375 50.7562 49.1699 51.0361L49.6924 51.6538H49.0039L48.8037 51.417C48.5498 51.6074 48.2471 51.7026 47.8955 51.7026C47.5439 51.7026 47.2624 51.6099 47.0508 51.4243C46.8408 51.2371 46.7358 50.9938 46.7358 50.6943ZM47.9126 51.229C48.1128 51.229 48.3 51.1623 48.4741 51.0288L47.6978 50.1133L47.6221 50.167C47.4268 50.3151 47.3291 50.4844 47.3291 50.6748C47.3291 50.8392 47.382 50.9727 47.4878 51.0752C47.5936 51.1777 47.7352 51.229 47.9126 51.229ZM47.5854 48.939C47.5854 49.0757 47.6693 49.2474 47.8369 49.4541L48.1079 49.2686L48.1836 49.2075C48.2845 49.118 48.335 49.0033 48.335 48.8633C48.335 48.7705 48.3 48.6916 48.23 48.6265C48.16 48.5597 48.0713 48.5264 47.9639 48.5264C47.8483 48.5264 47.7563 48.5654 47.688 48.6436C47.6196 48.7217 47.5854 48.8201 47.5854 48.939ZM54.043 50.4966C54.0072 50.8758 53.8672 51.172 53.623 51.3853C53.3789 51.5968 53.0542 51.7026 52.6489 51.7026C52.3657 51.7026 52.1159 51.6359 51.8994 51.5024C51.6846 51.3674 51.5186 51.1761 51.4014 50.9287C51.2842 50.6813 51.2231 50.394 51.2183 50.0669V49.7349C51.2183 49.3996 51.2777 49.1042 51.3965 48.8486C51.5153 48.5931 51.6854 48.3962 51.9067 48.2578C52.1297 48.1195 52.3869 48.0503 52.6782 48.0503C53.0705 48.0503 53.3862 48.1569 53.6255 48.3701C53.8647 48.5833 54.0039 48.8844 54.043 49.2734H53.4277C53.3984 49.0179 53.3236 48.834 53.2031 48.7217C53.0843 48.6077 52.9093 48.5508 52.6782 48.5508C52.4097 48.5508 52.203 48.6493 52.0581 48.8462C51.9149 49.0415 51.8416 49.3288 51.8384 49.708V50.0229C51.8384 50.4071 51.9067 50.7 52.0435 50.9019C52.1818 51.1037 52.3836 51.2046 52.6489 51.2046C52.8914 51.2046 53.0737 51.1501 53.1958 51.041C53.3179 50.932 53.3952 50.7505 53.4277 50.4966H54.043ZM57.4341 49.9692C57.4341 50.3175 57.3739 50.6235 57.2534 50.8872C57.133 51.1493 56.9604 51.3511 56.7358 51.4927C56.5129 51.6326 56.2557 51.7026 55.9644 51.7026C55.6763 51.7026 55.4191 51.6326 55.1929 51.4927C54.9683 51.3511 54.7941 51.1501 54.6704 50.8896C54.5483 50.6292 54.4865 50.3289 54.4849 49.9888V49.7886C54.4849 49.4419 54.5459 49.1359 54.668 48.8706C54.7917 48.6053 54.965 48.4027 55.188 48.2627C55.4126 48.1211 55.6698 48.0503 55.9595 48.0503C56.2492 48.0503 56.5055 48.1203 56.7285 48.2603C56.9531 48.3986 57.1265 48.5988 57.2485 48.8608C57.3706 49.1213 57.4325 49.4248 57.4341 49.7715V49.9692ZM56.8164 49.7837C56.8164 49.3898 56.7415 49.0879 56.5918 48.8779C56.4437 48.668 56.2329 48.563 55.9595 48.563C55.6925 48.563 55.4834 48.668 55.332 48.8779C55.1823 49.0863 55.1058 49.3817 55.1025 49.7642V49.9692C55.1025 50.3599 55.1782 50.6618 55.3296 50.875C55.4826 51.0882 55.6942 51.1948 55.9644 51.1948C56.2378 51.1948 56.4478 51.0907 56.5942 50.8823C56.7424 50.674 56.8164 50.3696 56.8164 49.9692V49.7837Z"/>
</symbol>
<symbol id="diagram" viewBox="0 0 70 70">
<path d="M32.6494 32.7351H34.9815V43.2296H32.6494V32.7351Z" fill="#2196F3"/>
<path d="M41.978 37.3993H44.3101V43.2296H41.978V37.3993Z" fill="#2196F3"/>
<path d="M23.3213 40.8975H25.6534V43.2296H23.3213V40.8975Z" fill="#2196F3"/>
<path d="M16.3247 39.7314H18.6568V43.2296H16.3247V39.7314Z" fill="#2196F3"/>
<path d="M3.49817 61.8865H59.4689C61.4007 61.8865 62.967 60.3201 62.967 58.3883V53.7241C62.967 51.7922 61.4007 50.2259 59.4689 50.2259H58.3028V21.1468L64.9262 14.8724C66.4635 15.6302 68.3242 15.1702 69.3302 13.7815C70.3369 12.3934 70.1957 10.482 68.9966 9.25678C67.7975 8.0315 65.8901 7.84874 64.4798 8.82406C63.0701 9.79995 62.569 11.6498 63.2933 13.2036L58.3028 17.9344V15.2442C58.3028 13.3124 56.7365 11.746 54.8046 11.746H8.16239C6.23054 11.746 4.66422 13.3124 4.66422 15.2442V50.2259H3.49817C1.56632 50.2259 0 51.7922 0 53.7241V58.3883C0 60.3201 1.56632 61.8865 3.49817 61.8865ZM66.4652 10.58C67.1091 10.58 67.6312 11.1021 67.6312 11.746C67.6312 12.39 67.1091 12.9121 66.4652 12.9121C65.8212 12.9121 65.2991 12.39 65.2991 11.746C65.2991 11.1021 65.8212 10.58 66.4652 10.58ZM6.99634 15.2442C6.99634 14.6003 7.51844 14.0781 8.16239 14.0781H54.8046C55.4486 14.0781 55.9707 14.6003 55.9707 15.2442V20.1413L53.6386 22.3573V17.5763C53.6386 16.9324 53.1165 16.4103 52.4725 16.4103H10.4945C9.85055 16.4103 9.32845 16.9324 9.32845 17.5763V46.7277C9.32845 47.3717 9.85055 47.8938 10.4945 47.8938H52.4725C53.1165 47.8938 53.6386 47.3717 53.6386 46.7277V25.5651L55.9707 23.3554V50.2259H6.99634V15.2442ZM17.4908 30.4029C15.9131 30.3984 14.5279 31.4494 14.1083 32.9702C13.6886 34.491 14.3383 36.104 15.6951 36.909C17.0513 37.7141 18.7793 37.512 19.9129 36.4148L23.9662 38.4486C24.4371 38.6843 25.0081 38.5739 25.3583 38.1804L33.9745 28.487L42.4443 34.8337C42.8987 35.1742 43.5329 35.1378 43.9452 34.7477L51.3065 27.7748V45.5617H11.6606V18.7424H51.3065V24.5618L43.0564 32.3746L34.5154 25.9716C34.0303 25.6083 33.3476 25.6766 32.9445 26.1293L24.2099 35.9571L20.9446 34.3241C20.9685 34.1841 20.9833 34.0429 20.989 33.9011C20.989 31.9693 19.4227 30.4029 17.4908 30.4029ZM18.6569 33.9011C18.6569 34.5451 18.1348 35.0672 17.4908 35.0672C16.8469 35.0672 16.3248 34.5451 16.3248 33.9011C16.3248 33.2572 16.8469 32.735 17.4908 32.735C18.1348 32.735 18.6569 33.2572 18.6569 33.9011ZM25.6532 52.558H37.3138V53.7241C37.3138 54.368 36.7917 54.8901 36.1477 54.8901H26.8193C26.1753 54.8901 25.6532 54.368 25.6532 53.7241V52.558ZM2.33211 53.7241C2.33211 53.0801 2.85422 52.558 3.49817 52.558H23.3211V53.7241C23.3211 55.6559 24.8874 57.2222 26.8193 57.2222H36.1477C38.0796 57.2222 39.6459 55.6559 39.6459 53.7241V52.558H59.4689C60.1128 52.558 60.6349 53.0801 60.6349 53.7241V58.3883C60.6349 59.0322 60.1128 59.5543 59.4689 59.5543H3.49817C2.85422 59.5543 2.33211 59.0322 2.33211 58.3883V53.7241Z" fill="#212121"/>
<defs>
<rect width="70" height="70" fill="white"/>
</defs></symbol>
<symbol id="close" viewBox="0 0 18 18"><path d="M15 4.10786L13.8921 3L9.5 7.39214L5.10786 3L4 4.10786L8.39214 8.5L4 12.8921L5.10786 14L9.5 9.60786L13.8921 14L15 12.8921L10.6079 8.5L15 4.10786Z"/></symbol>

<symbol id="email" viewBox="0 0 18 18"><path d="M15 3H3C2.175 3 1.5075 3.675 1.5075 4.5L1.5 13.5C1.5 14.325 2.175 15 3 15H15C15.825 15 16.5 14.325 16.5 13.5V4.5C16.5 3.675 15.825 3 15 3ZM14.7 6.1875L9.3975 9.5025C9.1575 9.6525 8.8425 9.6525 8.6025 9.5025L3.3 6.1875C3.1125 6.0675 3 5.865 3 5.6475C3 5.145 3.5475 4.845 3.975 5.1075L9 8.25L14.025 5.1075C14.4525 4.845 15 5.145 15 5.6475C15 5.865 14.8875 6.0675 14.7 6.1875Z"/></symbol>
<symbol id="phone" viewBox="0 0 18 18"><path d="M13.996 11.1226L12.1579 10.9127C11.7164 10.862 11.2822 11.014 10.971 11.3252L9.63945 12.6568C7.59144 11.6147 5.91251 9.94296 4.87041 7.8877L6.20922 6.54888C6.5204 6.2377 6.67237 5.80349 6.62171 5.36205L6.41185 3.53836C6.325 2.80745 5.70988 2.25745 4.97173 2.25745H3.71976C2.902 2.25745 2.22175 2.93771 2.2724 3.75547C2.65595 9.93572 7.59868 14.8712 13.7717 15.2548C14.5894 15.3054 15.2697 14.6252 15.2697 13.8074V12.5555C15.2769 11.8245 14.7269 11.2094 13.996 11.1226Z" />
<symbol id="person" viewBox="0 0 18 18"><path d="M9 9C10.6575 9 12 7.6575 12 6C12 4.3425 10.6575 3 9 3C7.3425 3 6 4.3425 6 6C6 7.6575 7.3425 9 9 9ZM9 10.5C6.9975 10.5 3 11.505 3 13.5V14.25C3 14.6625 3.3375 15 3.75 15H14.25C14.6625 15 15 14.6625 15 14.25V13.5C15 11.505 11.0025 10.5 9 10.5Z" /></symbol>
<symbol id="checkbox" width="16" height="15" viewBox="0 0 16 15">
<!-- <rect width="16" height="15" rx="2" fill="#2196F3"/> -->
<path d="M3.95703 7.75166L3.88825 7.68604L3.81923 7.75141L2.93123 8.59258L2.85486 8.66492L2.93097 8.73753L6.42671 12.0724L6.49574 12.1382L6.56476 12.0724L14.069 4.91352L14.1449 4.84116L14.069 4.76881L13.1873 3.92764L13.1183 3.86183L13.0493 3.92761L6.49577 10.1735L3.95703 7.75166Z" fill="white" stroke="white" stroke-width="0.2"/></symbol>
<symbol id="instagram" viewBox="0 0 20 20">
<path d="M19.9804 5.88005C19.9336 4.81738 19.7617 4.0868 19.5156 3.45374C19.2616 2.78176 18.8709 2.18014 18.359 1.68002C17.8589 1.1721 17.2533 0.777435 16.5891 0.527447C15.9524 0.281274 15.2256 0.109427 14.163 0.0625732C13.0924 0.0117516 12.7525 0 10.0371 0C7.32173 0 6.98185 0.0117516 5.91521 0.0586052C4.85253 0.105459 4.12195 0.277459 3.48904 0.523479C2.81692 0.777435 2.2153 1.16814 1.71517 1.68002C1.20726 2.18014 0.812743 2.78573 0.562603 3.44992C0.31643 4.0868 0.144583 4.81341 0.0977294 5.87609C0.0469078 6.9467 0.0351562 7.28658 0.0351562 10.002C0.0351562 12.7173 0.0469078 13.0572 0.0937614 14.1239C0.140615 15.1865 0.312615 15.9171 0.558787 16.5502C0.812743 17.2221 1.20726 17.8238 1.71517 18.3239C2.2153 18.8318 2.82088 19.2265 3.48508 19.4765C4.12195 19.7226 4.84856 19.8945 5.91139 19.9413C6.97788 19.9883 7.31791 19.9999 10.0333 19.9999C12.7487 19.9999 13.0885 19.9883 14.1552 19.9413C15.2179 19.8945 15.9484 19.7226 16.5813 19.4765C17.9254 18.9568 18.9881 17.8941 19.5078 16.5502C19.7538 15.9133 19.9258 15.1865 19.9727 14.1239C20.0195 13.0572 20.0313 12.7173 20.0313 10.002C20.0313 7.28658 20.0273 6.9467 19.9804 5.88005ZM18.1794 14.0457C18.1364 15.0225 17.9723 15.5499 17.8356 15.9015C17.4995 16.7728 16.808 17.4643 15.9367 17.8004C15.5851 17.9372 15.0538 18.1012 14.0809 18.1441C13.026 18.1911 12.7096 18.2027 10.0411 18.2027C7.37255 18.2027 7.05221 18.1911 6.00113 18.1441C5.02438 18.1012 4.49693 17.9372 4.1453 17.8004C3.71171 17.6402 3.31704 17.3862 2.9967 17.0541C2.6646 16.7298 2.41065 16.3391 2.2504 15.9055C2.11365 15.5539 1.94959 15.0225 1.90671 14.0497C1.8597 12.9948 1.8481 12.6783 1.8481 10.0097C1.8481 7.34122 1.8597 7.02087 1.90671 5.96995C1.94959 4.99319 2.11365 4.46575 2.2504 4.11412C2.41065 3.68038 2.6646 3.28586 3.00067 2.96536C3.32483 2.63327 3.71553 2.37931 4.14927 2.21921C4.5009 2.08247 5.03231 1.9184 6.0051 1.87537C7.05999 1.82851 7.37652 1.81676 10.0449 1.81676C12.7174 1.81676 13.0337 1.82851 14.0848 1.87537C15.0616 1.9184 15.589 2.08247 15.9407 2.21921C16.3742 2.37931 16.7689 2.63327 17.0893 2.96536C17.4213 3.28967 17.6753 3.68038 17.8356 4.11412C17.9723 4.46575 18.1364 4.99701 18.1794 5.96995C18.2263 7.02484 18.238 7.34122 18.238 10.0097C18.238 12.6783 18.2263 12.9908 18.1794 14.0457Z"/>
<path d="M10.0371 4.8642C7.20074 4.8642 4.89941 7.16537 4.89941 10.0019C4.89941 12.8385 7.20074 15.1396 10.0371 15.1396C12.8737 15.1396 15.1749 12.8385 15.1749 10.0019C15.1749 7.16537 12.8737 4.8642 10.0371 4.8642ZM10.0371 13.3346C8.19702 13.3346 6.70442 11.8422 6.70442 10.0019C6.70442 8.16165 8.19702 6.66921 10.0371 6.66921C11.8774 6.66921 13.3698 8.16165 13.3698 10.0019C13.3698 11.8422 11.8774 13.3346 10.0371 13.3346Z" />
<path d="M16.5775 4.6611C16.5775 5.32346 16.0404 5.86052 15.3779 5.86052C14.7155 5.86052 14.1785 5.32346 14.1785 4.6611C14.1785 3.99858 14.7155 3.46167 15.3779 3.46167C16.0404 3.46167 16.5775 3.99858 16.5775 4.6611Z"/>
</symbol>
<symbol id="twitter" viewBox="0 0 20 20">
<path d="M20 3.79875C19.2563 4.125 18.4637 4.34125 17.6375 4.44625C18.4875 3.93875 19.1363 3.14125 19.4412 2.18C18.6488 2.6525 17.7738 2.98625 16.8412 3.1725C16.0887 2.37125 15.0162 1.875 13.8462 1.875C11.5763 1.875 9.74875 3.7175 9.74875 5.97625C9.74875 6.30125 9.77625 6.61375 9.84375 6.91125C6.435 6.745 3.41875 5.11125 1.3925 2.6225C1.03875 3.23625 0.83125 3.93875 0.83125 4.695C0.83125 6.115 1.5625 7.37375 2.6525 8.1025C1.99375 8.09 1.3475 7.89875 0.8 7.5975C0.8 7.61 0.8 7.62625 0.8 7.6425C0.8 9.635 2.22125 11.29 4.085 11.6712C3.75125 11.7625 3.3875 11.8062 3.01 11.8062C2.7475 11.8062 2.4825 11.7913 2.23375 11.7362C2.765 13.36 4.2725 14.5538 6.065 14.5925C4.67 15.6838 2.89875 16.3412 0.98125 16.3412C0.645 16.3412 0.3225 16.3263 0 16.285C1.81625 17.4563 3.96875 18.125 6.29 18.125C13.835 18.125 17.96 11.875 17.96 6.4575C17.96 6.27625 17.9538 6.10125 17.945 5.9275C18.7588 5.35 19.4425 4.62875 20 3.79875Z"/>
</symbol>
<symbol id="facebook" viewBox="0 0 20 20">
<path d="M13.3308 3.32083H15.1566V0.140833C14.8416 0.0975 13.7583 0 12.4966 0C9.8641 0 8.06076 1.65583 8.06076 4.69917V7.5H5.15576V11.055H8.06076V20H11.6224V11.0558H14.4099L14.8524 7.50083H11.6216V5.05167C11.6224 4.02417 11.8991 3.32083 13.3308 3.32083Z"/>
</symbol>
<symbol id="linkedin" viewBox="0 0 20 20">
<path d="M19.9951 20V19.9992H20.0001V12.6642C20.0001 9.07587 19.2276 6.31171 15.0326 6.31171C13.0159 6.31171 11.6626 7.41837 11.1101 8.46754H11.0517V6.64671H7.07422V19.9992H11.2159V13.3875C11.2159 11.6467 11.5459 9.96337 13.7017 9.96337C15.8259 9.96337 15.8576 11.95 15.8576 13.4992V20H19.9951Z"/>
<path d="M0.330078 6.64746H4.47675V20H0.330078V6.64746Z" />
<path d="M2.40167 0C1.07583 0 0 1.07583 0 2.40167C0 3.7275 1.07583 4.82583 2.40167 4.82583C3.7275 4.82583 4.80333 3.7275 4.80333 2.40167C4.8025 1.07583 3.72667 0 2.40167 0V0Z"/>
</symbol>
</svg>